<svg width="16" height="16" viewBox="0 0 16 16" fill="none" xmlns="http://www.w3.org/2000/svg">
<rect x="1" y="1" width="14" height="14" rx="3" fill="#131313"/>
<path d="M11.5261 5.1206C11.2161 5.1206 10.8381 5.5402 10.5835 6.09296L8.06573 11.5H7.88931L5.45974 6.69095C5.01617 5.71859 4.52723 5.1206 4.25 5.1206V5H6.88875V5.1206C6.76778 5.1206 6.69973 5.25377 6.69973 5.47487C6.69973 5.71859 6.78794 6.08291 6.98704 6.50251L8.6832 9.80905L10.3012 6.41457C10.4348 6.09296 10.5003 5.80653 10.5003 5.58543C10.5003 5.29899 10.3894 5.1206 10.2231 5.1206V5H11.5211V5.1206H11.5261Z" fill="white"/>
</svg>
